<?xml version="1.0" standalone="no"?>
<!DOCTYPE svg PUBLIC "-//W3C//DTD SVG 20010904//EN"
 "http://www.w3.org/TR/2001/REC-SVG-20010904/DTD/svg10.dtd">
<svg version="1.0" xmlns="http://www.w3.org/2000/svg"
 width="1254.000000pt" height="1254.000000pt" viewBox="0 0 1254.000000 1254.000000"
 preserveAspectRatio="xMidYMid meet">

<g transform="translate(0.000000,1254.000000) scale(0.100000,-0.100000)"
fill="#000000" stroke="none">
<path d="M4725 11449 c-127 -18 -280 -77 -402 -155 -124 -79 -291 -272 -338
-391 -10 -24 -18 -43 -20 -43 -1 0 -86 41 -188 90 -158 77 -186 95 -197 120
-26 63 -107 94 -173 67 -53 -23 -79 -69 -74 -131 4 -42 10 -55 42 -84 37 -34
39 -35 102 -29 l65 6 362 -163 c341 -155 714 -331 725 -342 3 -2 -2 -11 -11
-20 -14 -14 -31 -9 -179 52 -406 166 -525 214 -536 214 -16 0 -27 -134 -19
-225 24 -269 173 -492 402 -605 45 -23 98 -43 118 -47 20 -3 36 -7 36 -8 0 -1
-18 -56 -39 -121 -55 -167 -74 -288 -74 -469 1 -164 17 -288 58 -428 72 -248
256 -528 459 -695 119 -99 228 -162 401 -231 88 -35 161 -65 163 -66 5 -4 -30
-243 -49 -335 -27 -127 -81 -308 -125 -417 -46 -116 -170 -361 -279 -553 -138
-241 -249 -479 -311 -665 -59 -175 -118 -437 -130 -574 -3 -44 -11 -81 -16
-81 -35 0 -385 305 -519 453 -504 554 -793 1148 -901 1852 -25 168 -36 570
-19 741 58 578 247 1107 565 1579 45 66 107 152 139 192 31 40 57 77 57 83 0
17 -34 80 -41 78 -15 -6 -156 -186 -225 -288 -317 -469 -513 -997 -580 -1570
-21 -173 -23 -533 -5 -690 73 -638 288 -1190 661 -1702 563 -772 1391 -1276
2306 -1403 157 -22 535 -31 689 -16 251 24 522 83 750 161 493 170 949 455
1270 792 l89 93 -52 9 -52 9 -101 -98 c-129 -123 -279 -243 -439 -350 -119
-79 -345 -205 -367 -205 -6 0 -14 24 -18 52 -12 91 -55 308 -90 453 -68 277
-148 481 -239 609 -63 88 -192 207 -282 260 -107 63 -219 101 -424 146 -96 21
-182 41 -191 45 -51 20 -32 348 31 537 34 101 86 208 100 208 6 0 32 -11 58
-24 80 -40 216 -84 300 -96 140 -21 278 18 336 95 13 17 61 103 106 191 45 87
110 206 143 264 88 153 151 291 194 426 37 118 37 120 38 295 l0 176 40 12
c22 7 58 24 80 39 l40 27 -67 6 c-38 3 -70 8 -73 11 -3 3 4 36 16 74 14 46 40
95 80 149 70 97 138 237 175 360 36 121 45 321 19 446 -53 265 -230 491 -486
620 -63 31 -82 46 -98 77 -37 72 -137 197 -221 275 -418 387 -1078 527 -1646
349 l-92 -29 -12 54 c-19 88 -83 203 -156 282 -161 174 -407 256 -659 220z
m1630 -881 c-16 -77 -79 -249 -123 -333 -69 -133 -183 -246 -312 -309 -52 -25
-130 -55 -172 -66 -90 -22 -228 -37 -227 -24 0 5 57 61 125 124 219 202 379
358 374 363 -8 8 -190 -111 -277 -180 -43 -35 -123 -106 -177 -158 -55 -52
-100 -95 -102 -95 -6 0 10 92 27 158 51 195 170 338 356 432 120 60 343 117
466 119 l49 1 -7 -32z m-1090 -177 c94 -187 115 -394 54 -555 -25 -69 -132
-228 -143 -215 -2 2 3 51 10 109 14 113 17 283 5 314 -6 15 -9 11 -18 -20 -12
-39 -41 -195 -63 -331 -7 -40 -15 -73 -20 -73 -4 0 -21 31 -38 68 -34 76 -62
197 -62 264 0 62 24 164 55 233 38 85 162 255 186 255 5 0 20 -22 34 -49z
m-602 -413 c15 -217 119 -433 283 -589 249 -235 622 -314 1010 -214 240 63
531 222 718 395 71 64 27 3 -51 -71 -245 -236 -519 -388 -787 -436 -119 -21
-314 -21 -435 1 -117 21 -274 82 -369 145 -143 94 -291 266 -358 417 -61 137
-84 318 -51 397 9 20 20 37 25 37 5 0 12 -37 15 -82z m2892 -143 c145 -187
237 -457 252 -735 l6 -125 -55 -18 c-69 -21 -116 -53 -145 -96 -42 -62 -34
-63 100 -15 42 15 79 25 82 23 2 -3 -13 -70 -33 -149 l-37 -145 -73 -12 c-70
-11 -122 -34 -122 -52 0 -10 122 -51 154 -51 30 0 36 -28 36 -159 -1 -203 -76
-417 -258 -733 -33 -56 -87 -158 -121 -226 -103 -206 -160 -249 -319 -240 -55
4 -116 15 -167 32 -202 67 -546 271 -693 410 -52 49 -76 66 -83 59 -30 -30
162 -223 331 -334 57 -38 107 -70 112 -71 4 -2 -11 -38 -32 -82 -79 -155 -120
-343 -120 -542 0 -68 -3 -124 -7 -124 -16 0 -111 60 -182 114 -60 45 -77 53
-92 45 -27 -14 -25 -21 27 -78 116 -130 290 -214 533 -261 155 -30 218 -48
297 -84 199 -92 333 -223 434 -426 48 -95 123 -332 164 -515 27 -122 86 -432
86 -452 0 -16 -323 -133 -490 -177 -618 -164 -1245 -134 -1865 89 -154 55
-473 210 -599 291 l-88 57 6 61 c4 34 18 129 32 211 68 397 153 616 430 1106
154 272 257 493 319 684 77 234 128 540 141 840 l7 160 41 -3 c28 -3 46 1 54
11 10 12 1 20 -53 46 -248 122 -358 563 -165 661 113 58 223 -16 345 -233 l22
-39 -19 -50 c-42 -111 -61 -218 -61 -348 0 -194 30 -307 148 -560 103 -222
127 -332 106 -484 -11 -78 -51 -185 -77 -207 -8 -6 -14 -16 -14 -22 0 -30 87
76 120 148 84 176 80 333 -14 578 -91 236 -122 384 -113 537 21 330 237 658
607 920 52 37 178 118 279 180 430 262 596 395 721 582 25 37 47 67 50 67 3 1
28 -28 55 -64z m-1670 -134 c86 -21 257 -90 261 -106 5 -15 -162 -134 -233
-166 -151 -70 -289 -85 -421 -49 -69 19 -198 77 -190 85 2 2 62 13 133 24 237
38 316 54 306 64 -10 10 -323 3 -406 -8 l-40 -6 39 34 c58 51 141 99 215 124
86 29 223 31 336 4z"/>
<path d="M6670 9064 c-66 -14 -140 -42 -140 -53 0 -3 80 -6 178 -6 173 -1 179
-2 270 -33 52 -18 125 -51 162 -73 38 -22 77 -39 87 -37 27 5 29 58 3 91 -28
36 -152 94 -237 112 -85 18 -237 18 -323 -1z"/>
<path d="M6550 8794 c0 -3 13 -24 29 -47 39 -57 119 -131 171 -157 93 -47 120
-53 262 -54 l137 -1 -23 30 c-36 47 -78 66 -211 96 -124 28 -244 70 -322 114
-24 13 -43 21 -43 19z"/>
<path d="M7468 8618 c-20 -67 -15 -278 9 -363 11 -38 29 -100 39 -137 l18 -67
-27 -29 c-15 -16 -54 -41 -87 -57 -74 -35 -81 -61 -15 -52 57 8 117 39 144 73
29 37 27 89 -9 201 -45 141 -63 261 -57 376 4 53 4 97 2 97 -2 0 -10 -19 -17
-42z"/>
<path d="M7286 7982 c-3 -4 11 -9 30 -9 19 -1 34 3 34 8 0 11 -57 12 -64 1z"/>
<path d="M7154 7701 c-45 -16 -100 -32 -123 -36 -22 -4 -41 -11 -41 -15 0 -16
44 -23 145 -25 55 -1 134 -6 175 -10 68 -7 77 -5 103 15 29 23 36 63 15 77 -7
4 -33 9 -58 10 -25 1 -65 4 -90 7 -34 4 -65 -2 -126 -23z"/>
<path d="M7090 7530 c0 -5 11 -22 24 -37 39 -47 133 -67 185 -40 45 23 33 32
-42 32 -60 0 -80 5 -119 27 -27 15 -48 23 -48 18z"/>
<path d="M6165 11319 c-66 -4 -160 -13 -210 -19 -93 -12 -337 -59 -344 -66 -2
-2 4 -22 14 -45 15 -33 22 -39 39 -34 51 14 311 55 416 64 146 14 441 14 590
1 610 -55 1177 -278 1660 -654 131 -102 385 -348 493 -479 438 -529 704 -1137
793 -1817 20 -147 25 -509 11 -702 l-8 -108 45 0 44 0 9 88 c15 160 9 583 -11
737 -70 551 -260 1067 -559 1522 -346 525 -796 930 -1322 1188 -403 197 -809
299 -1295 325 -193 10 -193 10 -365 -1z"/>
<path d="M8874 8153 c-161 -161 -281 -364 -325 -548 -19 -79 -21 -109 -16
-245 6 -173 28 -277 92 -424 24 -55 31 -84 25 -96 -5 -9 -23 -79 -40 -156 -40
-172 -86 -321 -144 -463 -54 -131 -115 -255 -123 -248 -3 3 9 60 26 126 88
336 50 601 -124 868 -53 81 -199 238 -243 262 -19 10 -23 4 -52 -77 -55 -151
-72 -229 -77 -362 -6 -152 12 -263 64 -394 62 -156 121 -243 275 -402 85 -88
87 -91 78 -124 -23 -81 -195 -324 -349 -494 -45 -50 -81 -93 -81 -97 0 -4 12
-17 28 -29 l27 -22 80 84 c44 46 128 147 187 225 136 179 140 181 301 157 135
-20 350 -15 442 11 86 23 249 105 325 163 114 87 251 248 314 369 l16 32 -37
10 c-79 20 -240 33 -336 27 -107 -8 -249 -40 -345 -79 -157 -63 -329 -208
-447 -376 -32 -45 -59 -80 -62 -78 -2 3 18 47 46 98 158 297 284 674 317 944
6 57 10 64 73 130 124 131 222 293 269 445 46 149 52 344 17 515 -26 125 -97
325 -115 325 -5 0 -43 -35 -86 -77z"/>
<path d="M9530 7234 c-351 -63 -576 -227 -719 -523 -42 -87 -77 -201 -68 -224
11 -30 239 2 381 54 255 93 433 288 535 585 17 50 31 99 31 108 0 20 -51 20
-160 0z"/>
<path d="M7181 3909 c-326 -64 -569 -295 -648 -616 -26 -105 -23 -314 6 -422
88 -332 340 -551 690 -602 235 -33 514 40 666 175 l50 45 -32 32 -31 32 -54
-47 c-152 -135 -415 -190 -618 -130 -227 66 -402 280 -454 554 -65 339 69 688
319 831 98 56 169 74 295 74 178 0 280 -42 401 -165 l77 -77 46 36 46 35 -53
54 c-95 97 -208 157 -353 187 -79 16 -279 19 -353 4z"/>
<path d="M3403 3903 c-36 -7 -81 -56 -88 -96 -10 -51 19 -107 68 -131 102 -49
210 56 162 157 -25 54 -82 82 -142 70z"/>
<path d="M5601 3897 c-50 -17 -76 -58 -76 -118 0 -41 5 -53 30 -79 40 -39 90
-48 139 -25 94 45 87 180 -10 221 -39 16 -39 16 -83 1z"/>
<path d="M1710 3095 l0 -805 105 0 105 0 0 304 0 304 83 79 c45 44 103 99 129
122 l47 42 158 -213 c87 -117 228 -309 313 -425 l155 -213 118 0 c94 0 116 3
110 13 -15 24 -147 202 -436 586 -159 211 -285 387 -280 391 4 4 118 110 253
236 135 126 283 264 329 307 l84 77 -79 0 -79 0 -450 -429 -450 -428 -3 428
-2 429 -105 0 -105 0 0 -805z"/>
<path d="M3980 3095 l0 -805 100 0 100 0 0 308 0 307 53 50 c28 28 84 81 123
118 l72 68 232 -323 c128 -178 267 -369 307 -425 l75 -103 114 0 c90 0 113 3
108 13 -8 11 -409 559 -494 672 -106 142 -210 288 -210 295 0 6 436 426 610
588 l45 41 -80 1 -79 0 -171 -167 c-93 -92 -290 -287 -437 -432 l-268 -264 0
431 0 432 -100 0 -100 0 0 -805z"/>
<path d="M8470 3324 c-73 -13 -122 -28 -181 -56 -65 -29 -68 -32 -95 -96 -16
-36 -30 -69 -32 -72 -1 -3 11 -13 27 -23 28 -17 29 -16 46 9 26 40 96 104 136
124 81 42 213 44 288 6 75 -39 121 -136 121 -254 l0 -64 -27 6 c-16 3 -73 9
-128 12 -225 15 -413 -63 -480 -199 -66 -137 -28 -306 89 -386 107 -74 290
-81 415 -16 19 9 56 38 83 62 l48 46 0 -67 0 -66 96 0 95 0 -3 393 c-3 380 -4
393 -25 440 -61 132 -169 194 -353 202 -52 2 -106 2 -120 -1z m275 -492 l30
-8 3 -146 3 -145 -33 -49 c-48 -70 -113 -108 -198 -112 -110 -7 -178 28 -223
112 -28 53 -29 154 -3 206 57 111 166 164 316 155 41 -3 89 -9 105 -13z"/>
<path d="M9683 3316 c-80 -26 -152 -86 -199 -164 -10 -18 -21 -32 -24 -32 -3
0 -5 42 -6 93 -1 50 -4 91 -7 90 -4 -2 -45 -3 -92 -3 l-85 0 0 -505 0 -505 95
0 95 0 0 333 c0 266 3 343 15 384 54 183 237 259 357 148 15 -14 30 -25 32
-25 7 0 66 116 66 130 0 18 -97 60 -152 65 -31 3 -70 -1 -95 -9z"/>
<path d="M10374 3315 c-168 -36 -303 -165 -356 -340 -28 -90 -30 -242 -4 -330
56 -188 202 -328 383 -365 81 -17 233 -7 311 20 61 21 202 113 209 136 2 6 -8
26 -23 43 l-26 32 -48 -45 c-112 -105 -264 -139 -404 -89 -118 41 -211 192
-217 353 l-3 65 373 3 374 2 -7 71 c-14 142 -75 272 -161 348 -73 63 -207 112
-304 110 -20 0 -63 -7 -97 -14z m222 -100 c80 -47 132 -146 141 -272 l6 -73
-272 0 -271 0 0 38 c0 84 48 205 102 261 80 82 200 101 294 46z"/>
<path d="M3349 3316 c-2 -2 -3 -234 -1 -515 l2 -511 85 0 85 0 0 515 0 515
-83 0 c-46 0 -86 -2 -88 -4z"/>
<path d="M5550 2805 l0 -515 85 0 85 0 0 515 0 515 -85 0 -85 0 0 -515z"/>
<path d="M1690 1815 l0 -25 4625 0 4625 0 0 25 0 25 -4625 0 -4625 0 0 -25z"/>
<path d="M5950 1431 c0 -17 31 -41 51 -41 29 0 59 18 59 35 0 19 -16 19 -24 0
-3 -8 -17 -15 -31 -15 -14 0 -28 7 -31 15 -7 16 -24 21 -24 6z"/>
<path d="M7400 1425 c0 -36 93 -44 107 -9 9 23 -5 29 -25 11 -23 -21 -51 -22
-58 -2 -8 20 -24 19 -24 0z"/>
<path d="M1750 1245 c0 -104 2 -125 15 -125 12 0 15 17 15 93 l0 92 46 -77
c25 -43 49 -78 54 -78 4 0 21 26 38 58 59 109 61 109 62 5 0 -76 3 -93 15 -93
13 0 15 21 15 125 0 154 -10 160 -76 45 -25 -44 -49 -82 -53 -84 -4 -3 -30 33
-57 79 -26 47 -54 85 -61 85 -10 0 -13 -30 -13 -125z"/>
<path d="M2251 1348 c-5 -13 -21 -50 -36 -83 -64 -140 -65 -145 -50 -145 8 0
21 14 30 30 15 29 18 30 84 30 68 0 69 -1 80 -30 5 -17 17 -30 26 -30 20 0 23
-10 -40 134 -52 120 -75 143 -94 94z m53 -74 c14 -31 26 -58 26 -60 0 -2 -22
-4 -50 -4 -27 0 -50 4 -50 9 0 10 41 111 46 111 1 0 14 -25 28 -56z"/>
<path d="M2550 1245 c0 -104 2 -125 15 -125 12 0 15 19 15 110 l0 109 68 3
c95 4 84 22 -15 26 l-83 3 0 -126z"/>
<path d="M2873 1252 c-29 -64 -53 -121 -53 -125 0 -20 29 -3 40 23 12 29 14
30 82 30 68 0 69 -1 79 -30 7 -18 18 -30 29 -30 15 0 9 19 -38 125 -37 81 -62
125 -72 125 -10 0 -34 -42 -67 -118z m89 35 c34 -83 36 -77 -21 -77 -28 0 -51
3 -51 8 0 11 44 112 50 112 3 0 13 -19 22 -43z"/>
<path d="M3214 1356 c-28 -21 -15 -26 33 -13 34 9 45 8 67 -6 49 -33 24 -77
-43 -77 -21 0 -31 -5 -31 -15 0 -11 12 -15 44 -15 47 0 70 -17 64 -47 -7 -38
-62 -49 -135 -27 -31 9 -29 -10 2 -24 42 -19 109 -15 139 9 32 25 35 68 6 94
-17 15 -17 19 -5 32 22 21 18 59 -7 83 -26 24 -104 28 -134 6z"/>
<path d="M3550 1245 c0 -100 3 -125 14 -125 7 0 47 44 87 98 l74 97 3 -97 c2
-78 6 -98 17 -98 12 0 15 22 15 125 0 103 -3 125 -15 125 -8 0 -47 -43 -87
-95 l-73 -95 -3 95 c-2 75 -6 95 -17 95 -12 0 -15 -22 -15 -125z"/>
<path d="M3940 1245 c0 -104 2 -125 15 -125 12 0 15 13 15 55 l0 55 75 0 75 0
0 -55 c0 -42 3 -55 15 -55 13 0 15 21 15 125 0 102 -3 125 -14 125 -11 0 -16
-15 -18 -52 l-3 -53 -72 -3 -73 -3 0 56 c0 42 -3 55 -15 55 -13 0 -15 -21 -15
-125z"/>
<path d="M4520 1245 c0 -104 2 -125 15 -125 12 0 15 13 15 55 0 54 0 55 30 55
25 0 36 -9 66 -55 24 -35 44 -55 56 -55 17 0 13 10 -27 65 l-46 65 41 54 c44
61 46 66 27 66 -8 0 -31 -25 -53 -55 -31 -43 -45 -55 -66 -55 -27 0 -28 2 -28
55 0 42 -3 55 -15 55 -13 0 -15 -21 -15 -125z"/>
<path d="M4896 1351 c-39 -26 -55 -57 -56 -104 0 -79 50 -127 134 -127 110 0
163 143 81 220 -35 33 -119 39 -159 11z m109 -15 c39 -17 57 -45 57 -91 0 -46
-18 -74 -58 -91 -44 -18 -78 -10 -109 28 -43 51 -23 133 39 158 29 12 32 12
71 -4z"/>
<path d="M5250 1245 c0 -104 2 -125 15 -125 11 0 15 11 15 40 l0 40 54 0 c69
0 106 26 106 75 0 18 -3 41 -6 50 -11 27 -60 45 -124 45 l-60 0 0 -125z m142
78 c19 -17 23 -49 10 -70 -10 -16 -57 -33 -93 -33 -29 0 -29 0 -29 60 l0 60
47 0 c29 0 53 -6 65 -17z"/>
<path d="M5577 1364 c-4 -4 -7 -61 -7 -126 l0 -118 91 0 c68 0 90 3 87 12 -5
14 -7 14 -85 16 l-53 2 0 44 0 44 57 -1 c34 0 59 5 61 12 2 7 -16 11 -57 11
l-61 0 0 43 0 42 65 0 c36 0 66 5 67 10 3 11 -154 20 -165 9z"/>
<path d="M5900 1245 c0 -104 3 -125 15 -125 8 0 47 44 87 97 l73 97 3 -97 c2
-77 6 -97 17 -97 12 0 15 22 15 125 0 104 -3 125 -15 125 -8 0 -47 -44 -87
-97 l-73 -97 -3 97 c-2 77 -6 97 -17 97 -12 0 -15 -22 -15 -125z"/>
<path d="M6340 1363 c-91 -36 -104 -185 -19 -228 47 -25 159 -13 159 16 0 17
-19 18 -49 3 -37 -19 -70 -13 -106 19 -80 71 4 202 104 161 38 -16 62 -5 36
16 -17 14 -101 23 -125 13z"/>
<path d="M6630 1245 c0 -104 2 -125 15 -125 12 0 15 13 15 55 0 54 0 55 30 55
25 0 36 -9 66 -55 22 -33 44 -55 55 -55 15 0 10 12 -27 65 l-45 64 40 55 c45
61 47 66 27 66 -8 0 -32 -25 -53 -55 -30 -44 -44 -55 -65 -55 -27 0 -28 2 -28
55 0 42 -3 55 -15 55 -13 0 -15 -21 -15 -125z"/>
<path d="M6991 1345 c-91 -77 -42 -225 75 -225 25 0 58 7 74 15 80 41 78 177
-2 221 -41 23 -113 17 -147 -11z m152 -36 c35 -38 36 -86 2 -127 -30 -36 -69
-45 -112 -27 -31 13 -63 59 -63 90 0 31 32 77 63 91 42 18 76 10 110 -27z"/>
<path d="M7350 1245 c0 -104 2 -125 15 -125 8 0 45 41 82 90 37 50 71 90 75
90 5 0 8 -40 8 -90 0 -73 3 -90 15 -90 13 0 15 21 15 125 0 103 -3 125 -15
125 -8 0 -47 -43 -87 -95 l-73 -95 -3 95 c-2 75 -6 95 -17 95 -12 0 -15 -22
-15 -125z"/>
<path d="M7920 1245 c0 -104 2 -125 15 -125 12 0 15 13 15 55 l0 55 33 0 c28
0 36 -7 67 -55 21 -33 42 -55 53 -55 21 0 19 4 -30 71 -32 46 -41 73 -25 83 4
2 22 25 40 50 28 39 30 46 15 46 -10 0 -33 -22 -53 -53 -30 -43 -41 -52 -65
-52 -29 0 -30 2 -33 53 -2 37 -7 52 -18 52 -11 0 -14 -23 -14 -125z"/>
<path d="M8298 1354 c-36 -19 -58 -63 -58 -116 0 -74 50 -118 134 -118 37 0
51 6 80 34 33 30 36 38 36 87 0 33 -6 63 -16 77 -34 49 -120 67 -176 36z m100
-15 c17 -6 38 -21 46 -34 20 -31 20 -94 1 -123 -32 -45 -122 -45 -157 1 -34
44 -16 126 33 153 30 16 38 17 77 3z"/>
<path d="M8682 1356 c-82 -45 -82 -180 0 -222 36 -19 118 -15 143 6 26 22 1
32 -38 15 -47 -19 -80 -11 -113 28 -21 25 -25 38 -21 70 6 44 37 83 72 89 13
3 41 -1 62 -8 48 -17 67 -2 25 20 -37 19 -98 20 -130 2z"/>
<path d="M8980 1245 c0 -104 2 -125 15 -125 12 0 15 17 15 93 l0 92 46 -77
c25 -43 49 -78 53 -78 3 0 26 35 51 78 l45 77 3 -92 c2 -74 6 -93 17 -93 12 0
15 22 15 126 0 113 -2 125 -17 122 -10 -2 -36 -36 -59 -76 -23 -41 -46 -78
-51 -83 -6 -6 -28 24 -58 76 -27 47 -55 85 -62 85 -10 0 -13 -30 -13 -125z"/>
<path d="M9400 1245 l0 -125 91 0 c61 0 89 4 87 11 -2 6 -33 12 -73 12 l-70 2
0 40 0 40 58 5 c31 3 57 10 57 15 0 6 -26 12 -57 15 l-58 5 0 39 0 40 68 -3
c55 -2 67 0 67 13 0 13 -14 16 -85 16 l-85 0 0 -125z"/>
<path d="M9690 1355 c0 -11 11 -15 40 -15 l40 0 0 -110 c0 -90 3 -110 15 -110
12 0 15 22 17 113 l3 112 39 1 c22 0 42 6 44 12 3 9 -24 12 -97 12 -83 0 -101
-3 -101 -15z"/>
<path d="M10017 1364 c-4 -4 -7 -61 -7 -126 0 -152 9 -154 108 -21 l72 97 0
-97 c0 -80 3 -97 15 -97 13 0 15 21 15 126 0 105 -2 125 -15 122 -8 -2 -46
-45 -84 -97 l-70 -93 -3 92 c-3 86 -12 113 -31 94z"/>
<path d="M10380 1245 c0 -104 2 -125 15 -125 12 0 15 13 15 55 0 54 0 55 30
55 24 0 36 -9 67 -55 21 -30 46 -54 56 -55 14 0 8 13 -27 66 l-45 67 40 52
c42 56 46 65 26 65 -8 0 -31 -25 -52 -55 -31 -45 -43 -55 -66 -55 -28 0 -29 1
-29 55 0 42 -3 55 -15 55 -13 0 -15 -21 -15 -125z"/>
<path d="M10717 1363 c-4 -3 -7 -60 -7 -125 0 -108 2 -118 19 -118 11 0 44 35
90 96 l71 97 0 -97 c0 -79 3 -96 15 -96 13 0 15 21 15 126 0 105 -2 125 -15
122 -8 -2 -46 -45 -85 -97 l-70 -94 0 65 c0 101 -12 143 -33 121z"/>
</g>
</svg>
